<svg width="545" height="395" viewBox="0 0 545 395" fill="none" xmlns="http://www.w3.org/2000/svg">
<g clip-path="url(#clip0_328_107)">
<path d="M316.963 69.634C327.162 69.634 335.429 61.3825 335.429 51.2038C335.429 41.0251 327.162 32.7737 316.963 32.7737C306.765 32.7737 298.498 41.0251 298.498 51.2038C298.498 61.3825 306.765 69.634 316.963 69.634Z" fill="#F2F2F2"/>
<path d="M460.206 343.158C487.653 322.293 500.763 287.231 492.556 253.783C492.352 252.952 492.137 252.123 491.91 251.296C486.469 231.442 473.008 212.572 453.389 206.229C436.916 200.902 418.935 204.998 401.75 202.88C368.014 198.722 341.859 171.478 323.456 142.953C305.053 114.428 290.909 82.4987 266.455 58.9331C226.147 20.0891 160.394 11.726 110.418 37.0105C60.4413 62.2951 28.6069 118.391 29.9645 174.298C31.3222 230.204 64.5753 283.655 112.867 312.014C130.607 322.432 151.126 329.812 171.546 327.23C189.264 324.989 205.363 315.487 222.998 312.666C250.724 308.23 278.273 320.742 302.254 335.322C326.235 349.902 349.399 367.184 376.65 373.943C403.111 380.506 435.893 361.642 460.206 343.158Z" fill="#F2F2F2"/>
<path d="M420.772 38.1845C420.17 37.7842 419.562 37.4046 418.96 37.018C401.567 25.9159 382.926 16.8967 363.42 10.1466L358.897 72.4209H330.224V1.05608C328.419 0.683345 326.6 0.331319 324.781 0V72.4209H290.707C271.949 72.4209 253.96 64.9836 240.696 51.7451C227.432 38.5066 219.98 20.5513 219.98 1.82924V1.82918C218.154 2.22262 216.342 2.64367 214.53 3.09233V72.4209H186.778L182.469 13.0388C162.424 20.7118 143.393 30.8022 125.801 43.0853C125.497 43.2924 125.193 43.5064 124.896 43.7134C123.367 44.7833 121.86 45.8739 120.359 46.9783V284.555H202.151L200.706 264.572L192.753 154.857H352.915L344.961 264.572L343.516 284.555H424.403V40.5866C423.199 39.7721 421.989 38.9715 420.772 38.1845ZM214.531 136.738H191.439L187.172 77.86H214.531V136.738ZM324.781 136.738H285.998V135.572C285.998 135.011 285.887 134.456 285.672 133.938C285.457 133.42 285.141 132.949 284.744 132.553C284.346 132.157 283.874 131.843 283.355 131.629C282.835 131.415 282.279 131.305 281.717 131.306H264.856C264.295 131.306 263.739 131.416 263.221 131.63C262.702 131.845 262.231 132.159 261.834 132.555C261.437 132.951 261.122 133.421 260.907 133.939C260.693 134.457 260.582 135.011 260.582 135.572V136.738H219.98V77.86H324.781V136.738ZM330.224 136.738V77.86H358.503L354.236 136.738H330.224Z" fill="#3F3D56"/>
<path d="M-3.05176e-05 299.769C6.00785 306.874 12.5061 313.551 19.447 319.751L524.697 320.441C531.638 314.241 538.137 307.564 544.144 300.459L-3.05176e-05 299.769Z" fill="#3F3D56"/>
<path d="M344.687 236.519V294.21C344.688 294.613 344.848 294.999 345.134 295.284C345.419 295.569 345.806 295.729 346.21 295.73H432.577C432.981 295.729 433.368 295.569 433.653 295.284C433.938 294.999 434.099 294.613 434.1 294.21V236.519C434.1 236.116 433.939 235.729 433.654 235.443C433.368 235.158 432.981 234.997 432.577 234.996H346.21C345.806 234.997 345.418 235.158 345.133 235.443C344.848 235.729 344.687 236.116 344.687 236.519V236.519Z" fill="#6C63FF"/>
<path d="M340.79 306.477C340.951 306.679 341.155 306.841 341.388 306.952C341.621 307.063 341.876 307.12 342.134 307.119H436.182C436.439 307.119 436.693 307.061 436.925 306.951C437.158 306.84 437.362 306.679 437.524 306.48C437.686 306.28 437.802 306.048 437.862 305.798C437.923 305.548 437.927 305.289 437.874 305.037L436.414 298.116C436.353 297.834 436.223 297.571 436.035 297.352C435.847 297.133 435.607 296.964 435.336 296.861C435.141 296.785 434.932 296.746 434.722 296.746H343.588C343.378 296.746 343.169 296.785 342.974 296.861C342.704 296.964 342.463 297.133 342.275 297.352C342.087 297.571 341.957 297.834 341.896 298.116L340.436 305.037C340.384 305.289 340.389 305.548 340.45 305.797C340.511 306.046 340.627 306.278 340.79 306.477V306.477Z" fill="#2F2E41"/>
<path d="M431.496 299.727H433.717C433.903 299.727 434.054 299.576 434.054 299.39V298.33C434.054 298.144 433.903 297.993 433.717 297.993H431.496C431.31 297.993 431.158 298.144 431.158 298.33V299.39C431.158 299.576 431.31 299.727 431.496 299.727Z" fill="#3F3D56"/>
<path d="M425.703 299.727H427.924C428.11 299.727 428.261 299.576 428.261 299.39V298.33C428.261 298.144 428.11 297.993 427.924 297.993H425.703C425.516 297.993 425.365 298.144 425.365 298.33V299.39C425.365 299.576 425.516 299.727 425.703 299.727Z" fill="#3F3D56"/>
<path d="M419.909 299.727H422.13C422.317 299.727 422.468 299.576 422.468 299.39V298.33C422.468 298.144 422.317 297.993 422.13 297.993H419.909C419.723 297.993 419.572 298.144 419.572 298.33V299.39C419.572 299.576 419.723 299.727 419.909 299.727Z" fill="#3F3D56"/>
<path d="M414.116 299.727H416.337C416.523 299.727 416.674 299.576 416.674 299.39V298.33C416.674 298.144 416.523 297.993 416.337 297.993H414.116C413.93 297.993 413.779 298.144 413.779 298.33V299.39C413.779 299.576 413.93 299.727 414.116 299.727Z" fill="#3F3D56"/>
<path d="M408.323 299.727H410.544C410.73 299.727 410.881 299.576 410.881 299.39V298.33C410.881 298.144 410.73 297.993 410.544 297.993H408.323C408.136 297.993 407.985 298.144 407.985 298.33V299.39C407.985 299.576 408.136 299.727 408.323 299.727Z" fill="#3F3D56"/>
<path d="M402.53 299.727H404.75C404.937 299.727 405.088 299.576 405.088 299.39V298.33C405.088 298.144 404.937 297.993 404.75 297.993H402.53C402.343 297.993 402.192 298.144 402.192 298.33V299.39C402.192 299.576 402.343 299.727 402.53 299.727Z" fill="#3F3D56"/>
<path d="M396.736 299.727H398.957C399.143 299.727 399.295 299.576 399.295 299.39V298.33C399.295 298.144 399.143 297.993 398.957 297.993H396.736C396.55 297.993 396.399 298.144 396.399 298.33V299.39C396.399 299.576 396.55 299.727 396.736 299.727Z" fill="#3F3D56"/>
<path d="M390.943 299.727H393.164C393.35 299.727 393.501 299.576 393.501 299.39V298.33C393.501 298.144 393.35 297.993 393.164 297.993H390.943C390.757 297.993 390.605 298.144 390.605 298.33V299.39C390.605 299.576 390.757 299.727 390.943 299.727Z" fill="#3F3D56"/>
<path d="M385.15 299.727H387.37C387.557 299.727 387.708 299.576 387.708 299.39V298.33C387.708 298.144 387.557 297.993 387.37 297.993H385.15C384.963 297.993 384.812 298.144 384.812 298.33V299.39C384.812 299.576 384.963 299.727 385.15 299.727Z" fill="#3F3D56"/>
<path d="M379.356 299.727H381.577C381.764 299.727 381.915 299.576 381.915 299.39V298.33C381.915 298.144 381.764 297.993 381.577 297.993H379.356C379.17 297.993 379.019 298.144 379.019 298.33V299.39C379.019 299.576 379.17 299.727 379.356 299.727Z" fill="#3F3D56"/>
<path d="M373.563 299.727H375.784C375.97 299.727 376.121 299.576 376.121 299.39V298.33C376.121 298.144 375.97 297.993 375.784 297.993H373.563C373.377 297.993 373.225 298.144 373.225 298.33V299.39C373.225 299.576 373.377 299.727 373.563 299.727Z" fill="#3F3D56"/>
<path d="M367.77 299.727H369.991C370.177 299.727 370.328 299.576 370.328 299.39V298.33C370.328 298.144 370.177 297.993 369.991 297.993H367.77C367.583 297.993 367.432 298.144 367.432 298.33V299.39C367.432 299.576 367.583 299.727 367.77 299.727Z" fill="#3F3D56"/>
<path d="M361.976 299.727H364.197C364.384 299.727 364.535 299.576 364.535 299.39V298.33C364.535 298.144 364.384 297.993 364.197 297.993H361.976C361.79 297.993 361.639 298.144 361.639 298.33V299.39C361.639 299.576 361.79 299.727 361.976 299.727Z" fill="#3F3D56"/>
<path d="M356.183 299.727H358.404C358.59 299.727 358.741 299.576 358.741 299.39V298.33C358.741 298.144 358.59 297.993 358.404 297.993H356.183C355.997 297.993 355.846 298.144 355.846 298.33V299.39C355.846 299.576 355.997 299.727 356.183 299.727Z" fill="#3F3D56"/>
<path d="M350.39 299.727H352.611C352.797 299.727 352.948 299.576 352.948 299.39V298.33C352.948 298.144 352.797 297.993 352.611 297.993H350.39C350.203 297.993 350.052 298.144 350.052 298.33V299.39C350.052 299.576 350.203 299.727 350.39 299.727Z" fill="#3F3D56"/>
<path d="M344.596 299.727H346.817C347.004 299.727 347.155 299.576 347.155 299.39V298.33C347.155 298.144 347.004 297.993 346.817 297.993H344.596C344.41 297.993 344.259 298.144 344.259 298.33V299.39C344.259 299.576 344.41 299.727 344.596 299.727Z" fill="#3F3D56"/>
<path d="M431.565 302.618H433.785C433.972 302.618 434.123 302.467 434.123 302.281V301.221C434.123 301.034 433.972 300.884 433.785 300.884H431.565C431.378 300.884 431.227 301.034 431.227 301.221V302.281C431.227 302.467 431.378 302.618 431.565 302.618Z" fill="#3F3D56"/>
<path d="M425.771 302.618H427.992C428.178 302.618 428.33 302.467 428.33 302.281V301.221C428.33 301.034 428.178 300.884 427.992 300.884H425.771C425.585 300.884 425.434 301.034 425.434 301.221V302.281C425.434 302.467 425.585 302.618 425.771 302.618Z" fill="#3F3D56"/>
<path d="M419.978 302.618H422.199C422.385 302.618 422.536 302.467 422.536 302.281V301.221C422.536 301.034 422.385 300.884 422.199 300.884H419.978C419.791 300.884 419.64 301.034 419.64 301.221V302.281C419.64 302.467 419.791 302.618 419.978 302.618Z" fill="#3F3D56"/>
<path d="M414.185 302.618H416.405C416.592 302.618 416.743 302.467 416.743 302.281V301.221C416.743 301.034 416.592 300.884 416.405 300.884H414.185C413.998 300.884 413.847 301.034 413.847 301.221V302.281C413.847 302.467 413.998 302.618 414.185 302.618Z" fill="#3F3D56"/>
<path d="M408.391 302.618H410.612C410.799 302.618 410.95 302.467 410.95 302.281V301.221C410.95 301.034 410.799 300.884 410.612 300.884H408.391C408.205 300.884 408.054 301.034 408.054 301.221V302.281C408.054 302.467 408.205 302.618 408.391 302.618Z" fill="#3F3D56"/>
<path d="M402.598 302.618H404.819C405.005 302.618 405.156 302.467 405.156 302.281V301.221C405.156 301.034 405.005 300.884 404.819 300.884H402.598C402.411 300.884 402.26 301.034 402.26 301.221V302.281C402.26 302.467 402.411 302.618 402.598 302.618Z" fill="#3F3D56"/>
<path d="M396.805 302.618H399.025C399.212 302.618 399.363 302.467 399.363 302.281V301.221C399.363 301.034 399.212 300.884 399.025 300.884H396.805C396.618 300.884 396.467 301.034 396.467 301.221V302.281C396.467 302.467 396.618 302.618 396.805 302.618Z" fill="#3F3D56"/>
<path d="M391.011 302.618H393.232C393.419 302.618 393.57 302.467 393.57 302.281V301.221C393.57 301.034 393.419 300.884 393.232 300.884H391.011C390.825 300.884 390.674 301.034 390.674 301.221V302.281C390.674 302.467 390.825 302.618 391.011 302.618Z" fill="#3F3D56"/>
<path d="M385.218 302.618H387.439C387.625 302.618 387.776 302.467 387.776 302.281V301.221C387.776 301.034 387.625 300.884 387.439 300.884H385.218C385.032 300.884 384.88 301.034 384.88 301.221V302.281C384.88 302.467 385.032 302.618 385.218 302.618Z" fill="#3F3D56"/>
<path d="M379.425 302.618H381.646C381.832 302.618 381.983 302.467 381.983 302.281V301.221C381.983 301.034 381.832 300.884 381.646 300.884H379.425C379.238 300.884 379.087 301.034 379.087 301.221V302.281C379.087 302.467 379.238 302.618 379.425 302.618Z" fill="#3F3D56"/>
<path d="M373.631 302.618H375.852C376.039 302.618 376.19 302.467 376.19 302.281V301.221C376.19 301.034 376.039 300.884 375.852 300.884H373.631C373.445 300.884 373.294 301.034 373.294 301.221V302.281C373.294 302.467 373.445 302.618 373.631 302.618Z" fill="#3F3D56"/>
<path d="M367.838 302.618H370.059C370.245 302.618 370.397 302.467 370.397 302.281V301.221C370.397 301.034 370.245 300.884 370.059 300.884H367.838C367.652 300.884 367.501 301.034 367.501 301.221V302.281C367.501 302.467 367.652 302.618 367.838 302.618Z" fill="#3F3D56"/>
<path d="M362.045 302.618H364.266C364.452 302.618 364.603 302.467 364.603 302.281V301.221C364.603 301.034 364.452 300.884 364.266 300.884H362.045C361.858 300.884 361.707 301.034 361.707 301.221V302.281C361.707 302.467 361.858 302.618 362.045 302.618Z" fill="#3F3D56"/>
<path d="M356.252 302.618H358.472C358.659 302.618 358.81 302.467 358.81 302.281V301.221C358.81 301.034 358.659 300.884 358.472 300.884H356.252C356.065 300.884 355.914 301.034 355.914 301.221V302.281C355.914 302.467 356.065 302.618 356.252 302.618Z" fill="#3F3D56"/>
<path d="M350.458 302.618H352.679C352.865 302.618 353.017 302.467 353.017 302.281V301.221C353.017 301.034 352.865 300.884 352.679 300.884H350.458C350.272 300.884 350.121 301.034 350.121 301.221V302.281C350.121 302.467 350.272 302.618 350.458 302.618Z" fill="#3F3D56"/>
<path d="M344.665 302.618H346.886C347.072 302.618 347.223 302.467 347.223 302.281V301.221C347.223 301.034 347.072 300.884 346.886 300.884H344.665C344.478 300.884 344.327 301.034 344.327 301.221V302.281C344.327 302.467 344.478 302.618 344.665 302.618Z" fill="#3F3D56"/>
<path d="M383.479 306.087H405.977C406.164 306.087 406.315 305.936 406.315 305.75V304.689C406.315 304.503 406.164 304.353 405.977 304.353H383.479C383.293 304.353 383.142 304.503 383.142 304.689V305.75C383.142 305.936 383.293 306.087 383.479 306.087Z" fill="#3F3D56"/>
<path d="M359.643 247.618H357.677C357.081 247.618 356.597 248.1 356.597 248.695C356.597 249.29 357.081 249.773 357.677 249.773H359.643C360.24 249.773 360.723 249.29 360.723 248.695C360.723 248.1 360.24 247.618 359.643 247.618Z" fill="white"/>
<path d="M382.136 247.618H380.169C379.573 247.618 379.089 248.1 379.089 248.695C379.089 249.29 379.573 249.773 380.169 249.773H382.136C382.732 249.773 383.215 249.29 383.215 248.695C383.215 248.1 382.732 247.618 382.136 247.618Z" fill="white"/>
<path d="M388.508 247.618H386.542C385.945 247.618 385.462 248.1 385.462 248.695C385.462 249.29 385.945 249.773 386.542 249.773H388.508C389.105 249.773 389.588 249.29 389.588 248.695C389.588 248.1 389.105 247.618 388.508 247.618Z" fill="white"/>
<path d="M376.018 247.438H363.795C363.199 247.438 362.715 247.92 362.715 248.516C362.715 249.111 363.199 249.593 363.795 249.593H376.018C376.614 249.593 377.097 249.111 377.097 248.516C377.097 247.92 376.614 247.438 376.018 247.438Z" fill="white"/>
<path d="M406.007 247.438H393.784C393.188 247.438 392.705 247.92 392.705 248.516C392.705 249.111 393.188 249.593 393.784 249.593H406.007C406.603 249.593 407.087 249.111 407.087 248.516C407.087 247.92 406.603 247.438 406.007 247.438Z" fill="white"/>
<path d="M365.641 252.482H363.675C363.078 252.482 362.595 252.964 362.595 253.559C362.595 254.154 363.078 254.637 363.675 254.637H365.641C366.238 254.637 366.721 254.154 366.721 253.559C366.721 252.964 366.238 252.482 365.641 252.482Z" fill="white"/>
<path d="M388.133 252.482H386.167C385.571 252.482 385.087 252.964 385.087 253.559C385.087 254.154 385.571 254.637 386.167 254.637H388.133C388.73 254.637 389.213 254.154 389.213 253.559C389.213 252.964 388.73 252.482 388.133 252.482Z" fill="white"/>
<path d="M394.506 252.482H392.54C391.943 252.482 391.46 252.964 391.46 253.559C391.46 254.154 391.943 254.637 392.54 254.637H394.506C395.102 254.637 395.586 254.154 395.586 253.559C395.586 252.964 395.102 252.482 394.506 252.482Z" fill="white"/>
<path d="M382.015 252.302H369.793C369.196 252.302 368.713 252.784 368.713 253.38C368.713 253.975 369.196 254.457 369.793 254.457H382.015C382.612 254.457 383.095 253.975 383.095 253.38C383.095 252.784 382.612 252.302 382.015 252.302Z" fill="white"/>
<path d="M412.005 252.302H399.782C399.186 252.302 398.702 252.784 398.702 253.38C398.702 253.975 399.186 254.457 399.782 254.457H412.005C412.601 254.457 413.085 253.975 413.085 253.38C413.085 252.784 412.601 252.302 412.005 252.302Z" fill="white"/>
<path d="M371.639 257.346H369.673C369.076 257.346 368.593 257.828 368.593 258.423C368.593 259.018 369.076 259.501 369.673 259.501H371.639C372.235 259.501 372.719 259.018 372.719 258.423C372.719 257.828 372.235 257.346 371.639 257.346Z" fill="white"/>
<path d="M394.131 257.346H392.165C391.568 257.346 391.085 257.828 391.085 258.423C391.085 259.018 391.568 259.501 392.165 259.501H394.131C394.728 259.501 395.211 259.018 395.211 258.423C395.211 257.828 394.728 257.346 394.131 257.346Z" fill="white"/>
<path d="M400.504 257.346H398.537C397.941 257.346 397.458 257.828 397.458 258.423C397.458 259.018 397.941 259.501 398.537 259.501H400.504C401.1 259.501 401.584 259.018 401.584 258.423C401.584 257.828 401.1 257.346 400.504 257.346Z" fill="white"/>
<path d="M388.013 257.166H375.791C375.194 257.166 374.711 257.648 374.711 258.244C374.711 258.839 375.194 259.321 375.791 259.321H388.013C388.61 259.321 389.093 258.839 389.093 258.244C389.093 257.648 388.61 257.166 388.013 257.166Z" fill="white"/>
<path d="M418.003 257.166H405.78C405.184 257.166 404.7 257.648 404.7 258.244C404.7 258.839 405.184 259.321 405.78 259.321H418.003C418.599 259.321 419.082 258.839 419.082 258.244C419.082 257.648 418.599 257.166 418.003 257.166Z" fill="white"/>
<path d="M377.637 262.209H375.671C375.074 262.209 374.591 262.692 374.591 263.287C374.591 263.882 375.074 264.365 375.671 264.365H377.637C378.233 264.365 378.717 263.882 378.717 263.287C378.717 262.692 378.233 262.209 377.637 262.209Z" fill="white"/>
<path d="M400.129 262.209H398.163C397.566 262.209 397.083 262.692 397.083 263.287C397.083 263.882 397.566 264.365 398.163 264.365H400.129C400.725 264.365 401.209 263.882 401.209 263.287C401.209 262.692 400.725 262.209 400.129 262.209Z" fill="white"/>
<path d="M406.502 262.209H404.535C403.939 262.209 403.456 262.692 403.456 263.287C403.456 263.882 403.939 264.365 404.535 264.365H406.502C407.098 264.365 407.582 263.882 407.582 263.287C407.582 262.692 407.098 262.209 406.502 262.209Z" fill="white"/>
<path d="M394.011 262.03H381.788C381.192 262.03 380.709 262.512 380.709 263.107C380.709 263.702 381.192 264.185 381.788 264.185H394.011C394.608 264.185 395.091 263.702 395.091 263.107C395.091 262.512 394.608 262.03 394.011 262.03Z" fill="white"/>
<path d="M382.136 281.551H380.169C379.573 281.551 379.089 282.033 379.089 282.628C379.089 283.223 379.573 283.706 380.169 283.706H382.136C382.732 283.706 383.215 283.223 383.215 282.628C383.215 282.033 382.732 281.551 382.136 281.551Z" fill="white"/>
<path d="M388.508 281.551H386.542C385.945 281.551 385.462 282.033 385.462 282.628C385.462 283.223 385.945 283.706 386.542 283.706H388.508C389.105 283.706 389.588 283.223 389.588 282.628C389.588 282.033 389.105 281.551 388.508 281.551Z" fill="white"/>
<path d="M406.007 281.73H393.784C393.188 281.73 392.705 282.213 392.705 282.808C392.705 283.403 393.188 283.885 393.784 283.885H406.007C406.603 283.885 407.087 283.403 407.087 282.808C407.087 282.213 406.603 281.73 406.007 281.73Z" fill="white"/>
<path d="M359.643 281.551H357.677C357.081 281.551 356.597 282.033 356.597 282.628C356.597 283.223 357.081 283.706 357.677 283.706H359.643C360.24 283.706 360.723 283.223 360.723 282.628C360.723 282.033 360.24 281.551 359.643 281.551Z" fill="white"/>
<path d="M376.018 281.73H363.795C363.199 281.73 362.715 282.213 362.715 282.808C362.715 283.403 363.199 283.885 363.795 283.885H376.018C376.614 283.885 377.097 283.403 377.097 282.808C377.097 282.213 376.614 281.73 376.018 281.73Z" fill="white"/>
<path d="M365.641 276.687H363.675C363.078 276.687 362.595 277.169 362.595 277.764C362.595 278.359 363.078 278.842 363.675 278.842H365.641C366.238 278.842 366.721 278.359 366.721 277.764C366.721 277.169 366.238 276.687 365.641 276.687Z" fill="white"/>
<path d="M388.133 276.687H386.167C385.571 276.687 385.087 277.169 385.087 277.764C385.087 278.359 385.571 278.842 386.167 278.842H388.133C388.73 278.842 389.213 278.359 389.213 277.764C389.213 277.169 388.73 276.687 388.133 276.687Z" fill="white"/>
<path d="M394.506 276.687H392.54C391.943 276.687 391.46 277.169 391.46 277.764C391.46 278.359 391.943 278.842 392.54 278.842H394.506C395.102 278.842 395.586 278.359 395.586 277.764C395.586 277.169 395.102 276.687 394.506 276.687Z" fill="white"/>
<path d="M382.015 276.866H369.793C369.196 276.866 368.713 277.349 368.713 277.944C368.713 278.539 369.196 279.021 369.793 279.021H382.015C382.612 279.021 383.095 278.539 383.095 277.944C383.095 277.349 382.612 276.866 382.015 276.866Z" fill="white"/>
<path d="M371.639 271.823H369.673C369.076 271.823 368.593 272.305 368.593 272.9C368.593 273.495 369.076 273.978 369.673 273.978H371.639C372.235 273.978 372.719 273.495 372.719 272.9C372.719 272.305 372.235 271.823 371.639 271.823Z" fill="white"/>
<path d="M394.131 271.823H392.165C391.568 271.823 391.085 272.305 391.085 272.9C391.085 273.495 391.568 273.978 392.165 273.978H394.131C394.728 273.978 395.211 273.495 395.211 272.9C395.211 272.305 394.728 271.823 394.131 271.823Z" fill="white"/>
<path d="M400.504 271.823H398.537C397.941 271.823 397.458 272.305 397.458 272.9C397.458 273.495 397.941 273.978 398.537 273.978H400.504C401.1 273.978 401.584 273.495 401.584 272.9C401.584 272.305 401.1 271.823 400.504 271.823Z" fill="white"/>
<path d="M388.013 272.002H375.791C375.194 272.002 374.711 272.485 374.711 273.08C374.711 273.675 375.194 274.157 375.791 274.157H388.013C388.61 274.157 389.093 273.675 389.093 273.08C389.093 272.485 388.61 272.002 388.013 272.002Z" fill="white"/>
<path d="M377.637 266.959H375.671C375.074 266.959 374.591 267.441 374.591 268.036C374.591 268.631 375.074 269.114 375.671 269.114H377.637C378.233 269.114 378.717 268.631 378.717 268.036C378.717 267.441 378.233 266.959 377.637 266.959Z" fill="white"/>
<path d="M400.129 266.959H398.163C397.566 266.959 397.083 267.441 397.083 268.036C397.083 268.631 397.566 269.114 398.163 269.114H400.129C400.725 269.114 401.209 268.631 401.209 268.036C401.209 267.441 400.725 266.959 400.129 266.959Z" fill="white"/>
<path d="M406.502 266.959H404.535C403.939 266.959 403.456 267.441 403.456 268.036C403.456 268.631 403.939 269.114 404.535 269.114H406.502C407.098 269.114 407.582 268.631 407.582 268.036C407.582 267.441 407.098 266.959 406.502 266.959Z" fill="white"/>
<path d="M394.011 267.138H381.788C381.192 267.138 380.709 267.621 380.709 268.216C380.709 268.811 381.192 269.294 381.788 269.294H394.011C394.608 269.294 395.091 268.811 395.091 268.216C395.091 267.621 394.608 267.138 394.011 267.138Z" fill="white"/>
<path d="M349.188 338.554L339.956 323.989L368.934 300.932L380.895 287.707C382.449 285.988 384.428 284.707 386.633 283.991C388.838 283.275 391.194 283.149 393.463 283.626C395.732 284.104 397.837 285.167 399.565 286.71C401.294 288.253 402.587 290.222 403.314 292.42C404.393 295.677 404.161 299.224 402.668 302.314C401.175 305.404 398.538 307.793 395.313 308.979L376.399 315.934L349.188 338.554Z" fill="#FFB6B6"/>
<path d="M132.568 232.946V303.737H182.258V232.946C182.258 232.436 182.096 231.94 181.793 231.53C181.491 231.12 181.064 230.818 180.577 230.668C180.347 230.592 180.107 230.555 179.865 230.557H134.968C134.653 230.557 134.341 230.618 134.05 230.738C133.759 230.857 133.495 231.033 133.272 231.255C133.049 231.477 132.872 231.74 132.751 232.03C132.63 232.32 132.568 232.631 132.568 232.946V232.946ZM151.96 257.27C151.973 255.874 152.537 254.54 153.531 253.558C154.524 252.576 155.866 252.025 157.264 252.025C158.662 252.025 160.004 252.576 160.997 253.558C161.991 254.54 162.555 255.874 162.568 257.27V265.484C162.561 266.883 161.999 268.223 161.005 269.21C160.011 270.197 158.666 270.751 157.264 270.751C155.862 270.751 154.517 270.197 153.523 269.21C152.529 268.223 151.967 266.883 151.96 265.484V257.27Z" fill="#2F2E41"/>
<path d="M132.416 301.474V308.3C132.417 308.654 132.558 308.993 132.808 309.243C133.057 309.494 133.396 309.636 133.75 309.639H181.075C181.43 309.637 181.769 309.496 182.019 309.245C182.269 308.994 182.41 308.654 182.41 308.3V301.474H132.416Z" fill="#3F3D56"/>
<path d="M54.3992 126.288V255.544C54.4005 257.191 55.0567 258.771 56.2237 259.935C57.3907 261.1 58.9731 261.755 60.6234 261.756H252.535C254.186 261.755 255.768 261.1 256.935 259.935C258.102 258.771 258.758 257.191 258.76 255.544V126.288C258.756 124.643 258.098 123.065 256.932 121.902C255.765 120.739 254.184 120.085 252.535 120.083H60.6234C58.9745 120.085 57.3936 120.739 56.227 121.902C55.0604 123.065 54.4032 124.643 54.3992 126.288Z" fill="#3F3D56"/>
<path d="M58.9014 127.897V253.95C58.9029 254.83 59.2538 255.673 59.8773 256.296C60.5008 256.918 61.3461 257.268 62.2278 257.27H250.938C251.819 257.268 252.665 256.918 253.288 256.296C253.912 255.673 254.263 254.83 254.264 253.95V127.897C254.264 127.015 253.914 126.17 253.29 125.547C252.667 124.923 251.821 124.571 250.938 124.57H62.2278C61.345 124.572 60.499 124.923 59.8753 125.547C59.2517 126.17 58.9015 127.015 58.9014 127.897Z" fill="white"/>
<path d="M93.9227 309.177C94.1148 309.417 94.3589 309.611 94.6368 309.744C94.9147 309.876 95.2191 309.944 95.5272 309.943H207.797C208.104 309.942 208.407 309.874 208.685 309.742C208.962 309.61 209.206 309.418 209.399 309.18C209.593 308.942 209.73 308.664 209.803 308.366C209.875 308.068 209.88 307.758 209.817 307.458L208.074 299.196C208.002 298.859 207.846 298.545 207.622 298.284C207.397 298.022 207.11 297.821 206.788 297.698C206.554 297.606 206.305 297.56 206.055 297.56H97.263C97.0122 297.56 96.7635 297.606 96.53 297.698C96.2074 297.821 95.9207 298.022 95.696 298.284C95.4714 298.545 95.3158 298.859 95.2436 299.196L93.5009 307.458C93.4389 307.758 93.4445 308.068 93.5175 308.365C93.5905 308.662 93.7289 308.939 93.9227 309.177Z" fill="#2F2E41"/>
<path d="M244.814 141.934H68.2384C68.0549 141.93 67.8802 141.854 67.7519 141.724C67.6235 141.593 67.5516 141.417 67.5516 141.233C67.5516 141.05 67.6235 140.874 67.7519 140.743C67.8802 140.612 68.0549 140.537 68.2384 140.532H244.814C244.997 140.537 245.172 140.612 245.3 140.743C245.428 140.874 245.5 141.05 245.5 141.233C245.5 141.417 245.428 141.593 245.3 141.724C245.172 141.854 244.997 141.93 244.814 141.934V141.934Z" fill="#3F3D56"/>
<path d="M80.2581 136.954C82.5309 136.954 84.3733 135.074 84.3733 132.755C84.3733 130.436 82.5309 128.556 80.2581 128.556C77.9854 128.556 76.143 130.436 76.143 132.755C76.143 135.074 77.9854 136.954 80.2581 136.954Z" fill="#3F3D56"/>
<path d="M94.4741 136.954C96.7469 136.954 98.5893 135.074 98.5893 132.755C98.5893 130.436 96.7469 128.556 94.4741 128.556C92.2014 128.556 90.359 130.436 90.359 132.755C90.359 135.074 92.2014 136.954 94.4741 136.954Z" fill="#3F3D56"/>
<path d="M108.69 136.954C110.963 136.954 112.805 135.074 112.805 132.755C112.805 130.436 110.963 128.556 108.69 128.556C106.417 128.556 104.575 130.436 104.575 132.755C104.575 135.074 106.417 136.954 108.69 136.954Z" fill="#3F3D56"/>
<path d="M236.253 129.595H226.156C225.957 129.599 225.767 129.682 225.627 129.824C225.488 129.967 225.41 130.158 225.41 130.357C225.41 130.557 225.488 130.748 225.627 130.891C225.767 131.033 225.957 131.116 226.156 131.12H236.253C236.454 131.117 236.646 131.036 236.787 130.893C236.928 130.75 237.007 130.558 237.007 130.357C237.007 130.157 236.928 129.965 236.787 129.822C236.646 129.679 236.454 129.598 236.253 129.595Z" fill="#3F3D56"/>
<path d="M236.253 132.459H226.156C225.956 132.464 225.766 132.546 225.627 132.688C225.487 132.831 225.409 133.023 225.409 133.222C225.409 133.421 225.487 133.613 225.627 133.755C225.766 133.898 225.956 133.98 226.156 133.985H236.253C236.454 133.982 236.646 133.901 236.788 133.758C236.929 133.615 237.008 133.423 237.008 133.222C237.008 133.021 236.929 132.829 236.788 132.686C236.646 132.543 236.454 132.462 236.253 132.459V132.459Z" fill="#3F3D56"/>
<path d="M236.253 135.324H226.156C225.957 135.328 225.767 135.411 225.627 135.553C225.488 135.696 225.41 135.887 225.41 136.086C225.41 136.286 225.488 136.477 225.627 136.62C225.767 136.762 225.957 136.845 226.156 136.849H236.253C236.454 136.846 236.646 136.765 236.787 136.622C236.928 136.479 237.007 136.287 237.007 136.086C237.007 135.886 236.928 135.694 236.787 135.551C236.646 135.408 236.454 135.327 236.253 135.324V135.324Z" fill="#3F3D56"/>
<path d="M479.673 304.47C479.978 305.355 480.556 306.121 481.324 306.658C482.092 307.195 483.011 307.476 483.949 307.459L502.27 306.988C503.215 306.97 504.128 306.647 504.874 306.068C505.619 305.488 506.157 304.684 506.406 303.774L508.999 276.104C509.919 276.52 510.92 276.725 511.93 276.705C512.807 276.683 513.671 276.489 514.473 276.133C515.275 275.778 515.999 275.269 516.604 274.634C517.209 273.999 517.682 273.252 517.997 272.435C518.313 271.618 518.464 270.746 518.442 269.871C518.42 268.995 518.225 268.133 517.869 267.332C517.513 266.532 517.003 265.809 516.367 265.206C515.731 264.602 514.982 264.13 514.163 263.815C513.345 263.5 512.472 263.35 511.595 263.372C511.191 263.37 510.788 263.412 510.394 263.496C509.965 263.033 509.443 262.664 508.862 262.414C508.282 262.164 507.655 262.038 507.023 262.045L478.841 262.771C478.607 262.78 478.375 262.808 478.146 262.857C477.528 262.972 476.942 263.218 476.427 263.578C475.912 263.938 475.48 264.404 475.161 264.945C474.842 265.485 474.642 266.088 474.576 266.712C474.509 267.335 474.577 267.966 474.776 268.562L479.673 304.47ZM509.531 274.225L511.376 267.631C511.585 266.87 511.59 266.066 511.39 265.302C511.479 265.302 511.558 265.259 511.648 265.259C512.913 265.233 514.136 265.709 515.051 266.582C515.965 267.455 516.495 268.654 516.524 269.916C516.554 271.179 516.081 272.402 515.209 273.316C514.336 274.231 513.136 274.763 511.871 274.796C511.054 274.822 510.244 274.624 509.531 274.225Z" fill="#2F2E41"/>
<path d="M478.146 262.857C478.746 266.283 485.497 268.692 493.614 268.274C501.077 267.93 507.18 265.314 508.299 262.214C507.885 262.092 507.454 262.035 507.023 262.045L478.841 262.771C478.607 262.779 478.375 262.808 478.146 262.857V262.857Z" fill="#3F3D56"/>
<path d="M495.101 289.265C495.138 289.255 495.174 289.24 495.206 289.219L499.184 286.619C499.232 286.588 499.272 286.545 499.299 286.495C499.327 286.445 499.341 286.388 499.341 286.331C499.341 286.274 499.327 286.217 499.299 286.167C499.272 286.116 499.232 286.074 499.184 286.042L495.049 283.339C495.011 283.314 494.969 283.296 494.924 283.288C494.879 283.279 494.833 283.279 494.789 283.289C494.744 283.298 494.702 283.316 494.664 283.341C494.626 283.367 494.594 283.399 494.569 283.437C494.544 283.475 494.527 283.518 494.519 283.562C494.51 283.607 494.511 283.653 494.52 283.697C494.53 283.742 494.548 283.784 494.573 283.822C494.599 283.859 494.632 283.891 494.67 283.916L498.364 286.33L494.827 288.641C494.759 288.686 494.708 288.753 494.685 288.832C494.662 288.91 494.667 288.994 494.7 289.069C494.733 289.144 494.791 289.204 494.864 289.24C494.938 289.276 495.022 289.285 495.101 289.265H495.101Z" fill="#6C63FF"/>
<path d="M488.817 289.554C488.884 289.537 488.944 289.5 488.99 289.449C489.036 289.398 489.065 289.334 489.075 289.266C489.084 289.198 489.073 289.129 489.042 289.067C489.012 289.005 488.964 288.954 488.904 288.92L485.237 286.821L488.781 284.193C488.818 284.166 488.849 284.132 488.872 284.093C488.895 284.055 488.911 284.012 488.917 283.967C488.924 283.922 488.921 283.876 488.91 283.832C488.899 283.788 488.88 283.747 488.853 283.711C488.826 283.674 488.792 283.644 488.753 283.62C488.714 283.597 488.671 283.582 488.626 283.575C488.581 283.569 488.535 283.571 488.491 283.582C488.447 283.593 488.406 283.613 488.369 283.64L484.401 286.582C484.354 286.616 484.318 286.661 484.293 286.713C484.269 286.765 484.258 286.822 484.261 286.879C484.265 286.936 484.282 286.992 484.313 287.041C484.343 287.089 484.385 287.13 484.435 287.158L488.56 289.519C488.638 289.563 488.73 289.576 488.817 289.554V289.554Z" fill="#6C63FF"/>
<path d="M494.705 291.542C494.739 291.534 494.771 291.521 494.8 291.502C494.839 291.479 494.873 291.448 494.9 291.411C494.926 291.375 494.946 291.333 494.957 291.289C494.967 291.245 494.969 291.199 494.962 291.155C494.955 291.11 494.94 291.067 494.916 291.028L489.276 281.773C489.228 281.695 489.151 281.639 489.062 281.618C488.973 281.596 488.879 281.611 488.801 281.658C488.722 281.706 488.666 281.783 488.645 281.871C488.623 281.96 488.637 282.054 488.685 282.132L494.325 291.387C494.364 291.45 494.421 291.499 494.49 291.527C494.558 291.555 494.634 291.56 494.705 291.542Z" fill="#6C63FF"/>
<path d="M177.624 180.036H147.062C145.816 180.036 144.805 181.044 144.805 182.289V185.269C144.805 186.513 145.816 187.522 147.062 187.522H177.624C178.87 187.522 179.881 186.513 179.881 185.269V182.289C179.881 181.044 178.87 180.036 177.624 180.036Z" fill="#6C63FF"/>
<path d="M195.438 195.008H129.248C128.002 195.008 126.991 196.017 126.991 197.261V200.241C126.991 201.486 128.002 202.494 129.248 202.494H195.438C196.684 202.494 197.695 201.486 197.695 200.241V197.261C197.695 196.017 196.684 195.008 195.438 195.008Z" fill="#E6E6E6"/>
<path d="M195.438 209.98H129.248C128.002 209.98 126.991 210.989 126.991 212.234V215.214C126.991 216.458 128.002 217.467 129.248 217.467H195.438C196.684 217.467 197.695 216.458 197.695 215.214V212.234C197.695 210.989 196.684 209.98 195.438 209.98Z" fill="#E6E6E6"/>
<path d="M201.048 260.117L201.198 260.59L201.206 260.605L205.719 274.299L210.91 290.078L220.677 319.732L220.772 324.339V324.354L221.497 361.41L219.486 366.434L221.75 374.67C221.75 374.67 220.708 362.22 215.123 369.37C211.959 373.433 208.259 377.59 205.222 381.488C209.648 383.276 214.145 384.892 218.712 386.339C219.699 386.654 220.693 386.953 221.687 387.252C221.9 387.315 222.113 387.378 222.326 387.441C237.468 391.91 253.121 394.422 268.904 394.913C269.724 394.937 270.529 394.953 271.31 394.969C271.586 394.976 271.854 394.984 272.123 394.984C273.006 394.992 273.882 395 274.766 395C276.549 395 278.324 394.974 280.091 394.921C293.171 394.553 306.174 392.798 318.882 389.685C318.796 384.449 318.559 378.331 318.22 371.795C318.062 368.59 314.52 365.118 314.307 361.763C314.157 359.244 317.336 356.874 317.17 354.314C316.097 338.558 314.756 344.607 313.762 333.449C313.66 332.355 313.565 331.307 313.478 330.307C312.839 323.142 312.397 318.661 312.397 318.661L316.642 291.96L323.308 250.038L322.795 249.196L322.219 248.912L287.057 231.542L285.148 226.66C284.592 225.254 283.626 224.045 282.377 223.191C281.127 222.336 279.649 221.875 278.134 221.865L254.971 221.77C253.769 221.765 252.583 222.046 251.512 222.589C250.44 223.133 249.514 223.924 248.81 224.896L242.538 233.566L201.048 260.117Z" fill="#3F3D56"/>
<path d="M226.018 313.134L220.772 324.339L217.19 331.992L211.028 364.19L207.944 367.457L205.301 355.889L177.639 362.019C176.732 356.988 177.396 362.189 176.836 356.67C176.994 356.512 177.16 356.355 177.325 356.197C177.767 355.788 178.138 355.402 178.13 355.032C177.815 335.992 178.761 303.59 186.666 283.96C187.904 280.755 189.537 277.716 191.526 274.913C191.684 274.7 191.834 274.487 191.984 274.275C195.629 269.18 197.932 264.165 201.198 260.598V260.59C201.219 260.573 201.237 260.555 201.254 260.535C201.265 260.529 201.276 260.521 201.285 260.511L223.722 248.637L224.685 275.629L225.371 295.031L226.018 313.134Z" fill="#3F3D56"/>
<path d="M306.922 316.316L313.475 330.311L315.762 335.185L321.922 367.379L324.997 370.639L327.646 359.074L328.89 358.819L351.338 354.179L357.881 374.918C359.355 372.466 359.936 369.58 359.525 366.75C359.114 363.919 357.737 361.317 355.625 359.384C355.178 358.98 354.806 358.587 354.817 358.216C355.189 335.822 353.817 294.931 341.423 278.101C337.486 272.76 335.125 267.441 331.688 263.724C331.678 263.714 331.678 263.703 331.667 263.703L323.305 250.037L322.794 249.199L322.22 248.912L306.922 316.316Z" fill="#3F3D56"/>
<path d="M267.222 215.191C284.241 215.191 298.037 201.421 298.037 184.435C298.037 167.449 284.241 153.678 267.222 153.678C250.203 153.678 236.407 167.449 236.407 184.435C236.407 201.421 250.203 215.191 267.222 215.191Z" fill="#FFB6B6"/>
<path d="M308.873 162.952C308.634 162.697 308.346 162.493 308.026 162.352C307.707 162.211 307.362 162.135 307.012 162.13L307.476 160.846C307.627 160.442 307.668 160.005 307.594 159.579C307.52 159.154 307.334 158.756 307.056 158.426C306.777 158.096 306.415 157.846 306.008 157.701C305.601 157.556 305.162 157.522 304.737 157.602L303.049 157.927L303.209 156.802C303.27 156.382 303.22 155.955 303.065 155.561C302.911 155.166 302.656 154.819 302.325 154.553C301.995 154.287 301.602 154.111 301.183 154.043C300.764 153.975 300.335 154.017 299.937 154.165C299.576 154.307 299.187 154.366 298.799 154.339C298.411 154.311 298.035 154.198 297.697 154.006C297.357 153.82 297.063 153.563 296.833 153.252C296.604 152.94 296.446 152.583 296.369 152.204L295.781 149.374L295.719 149.223C292.856 144.46 287.351 140.995 280.615 139.725C274.619 138.586 268.471 139.166 262.544 139.711C260.193 139.932 257.537 140.18 255.324 141.533C253.443 142.693 251.852 145.012 252.177 147.352C246.333 145.564 240.068 149.133 236.963 153.633C233.283 158.99 232.682 165.699 232.585 170.945C232.322 183.355 234.888 193.509 240.192 201.129C240.58 201.681 240.676 202.834 241.444 203.221L241.285 202.965C242.142 203.393 243.014 204.084 242.689 204.822C241.755 206.948 247.959 211.649 252.329 213.202C260.303 216.039 270.905 215.797 278.36 214.775L278.623 213.015C281.313 212.65 283.208 211.952 283.741 210.862C284.681 210.061 285.483 209.343 286.182 208.681L286.189 208.674C286.203 208.66 286.23 208.639 286.244 208.625C289.612 205.402 290.394 203.566 290.746 200.77C291.085 198.03 290.484 195.248 289.868 192.743C302.828 194.744 284.764 178.965 296.839 175.915C296.978 175.872 297.118 175.837 297.261 175.811C297.614 175.728 297.966 175.645 298.305 175.549C299.939 175.106 301.503 174.439 302.953 173.568C306.328 171.518 307.441 168.798 309.184 165.733C309.435 165.297 309.541 164.792 309.485 164.292C309.429 163.791 309.214 163.322 308.873 162.952V162.952Z" fill="#2F2E41"/>
<path d="M376.211 318.506C376.204 319.714 376.19 321.405 376.135 323.496C376.128 323.786 376.121 324.083 376.114 324.387C376.024 328.232 375.934 331.455 375.789 335.037C375.782 335.286 375.775 335.527 375.762 335.776C375.568 340.773 375.264 346.592 374.738 355.807C373.763 372.829 372.062 358.147 370.353 364.118C370.27 364.414 370.181 364.766 370.098 365.181C369.839 366.683 369.402 368.15 368.797 369.55C367.891 370.088 366.958 370.606 366.038 371.124C363.417 372.58 360.754 373.981 358.071 375.313C356.563 376.059 355.049 376.791 353.528 377.495C353.285 377.605 353.05 377.716 352.815 377.819C345.024 381.416 336.994 384.474 328.783 386.972C327.179 387.455 325.581 387.924 323.963 388.359C322.275 388.829 320.588 389.27 318.88 389.684C306.172 392.798 293.169 394.554 280.089 394.923C278.326 394.979 276.548 394.999 274.764 394.999C273.879 394.999 273.008 394.992 272.122 394.986C271.853 394.986 271.583 394.979 271.313 394.972C270.532 394.951 269.723 394.937 268.906 394.916C253.124 394.425 237.47 391.913 222.329 387.441L221.686 387.255C220.69 386.951 219.701 386.654 218.712 386.337C214.148 384.894 209.65 383.279 205.219 381.491C201.838 380.131 198.495 378.673 195.192 377.115C195.161 377.107 195.133 377.093 195.109 377.074C194.417 376.756 193.719 376.425 193.027 376.087C192.937 376.038 192.84 375.99 192.743 375.942C190.164 374.685 187.612 373.369 185.088 371.993C182.965 367.127 179.977 366.195 178.123 361.916C177.584 360.644 177.194 359.315 176.962 357.954C176.962 357.94 176.955 357.926 176.955 357.905C177.148 360.473 176.132 353.35 176.948 357.878C176.941 357.795 176.934 357.705 176.927 357.602C176.906 357.353 176.879 357.049 176.837 356.67C174.465 333.553 174.617 307.117 173.587 285.333C173.518 283.925 173.446 282.576 173.372 281.288C173.352 280.86 173.324 280.439 173.296 280.025C173.345 279.9 173.4 279.769 173.462 279.645C173.476 279.609 173.492 279.575 173.511 279.541C173.531 279.499 173.554 279.457 173.58 279.417C173.594 279.396 173.614 279.369 173.628 279.348C173.638 279.324 173.65 279.301 173.663 279.279C173.725 279.182 173.794 279.079 173.87 278.982C173.905 278.941 173.933 278.906 173.967 278.872C173.991 278.837 174.019 278.804 174.05 278.775C174.071 278.742 174.097 278.712 174.126 278.686C174.154 278.658 174.182 278.623 174.216 278.589C174.231 278.567 174.25 278.548 174.271 278.534C174.326 278.471 174.386 278.413 174.451 278.361C174.698 278.135 174.962 277.927 175.24 277.74C175.336 277.678 175.44 277.616 175.537 277.547C176.234 277.131 176.968 276.779 177.729 276.497C177.992 276.401 178.255 276.311 178.538 276.214C178.642 276.187 178.739 276.152 178.843 276.118C178.995 276.07 179.147 276.021 179.306 275.987C180.094 275.752 180.945 275.552 181.865 275.365C181.976 275.345 182.093 275.324 182.211 275.296C182.377 275.262 182.55 275.234 182.722 275.207C182.958 275.165 183.2 275.124 183.442 275.082C185.496 274.758 187.826 274.516 190.399 274.358C190.641 274.344 190.883 274.33 191.125 274.316C191.409 274.302 191.692 274.289 191.983 274.275C192.225 274.261 192.474 274.254 192.723 274.247C192.965 274.233 193.214 274.227 193.47 274.22C194.168 274.199 194.887 274.178 195.62 274.164C197.709 274.123 199.908 274.137 202.218 274.185C203.29 274.213 204.383 274.24 205.503 274.289C205.579 274.289 205.648 274.296 205.717 274.296C206.692 274.33 207.674 274.371 208.684 274.427C209.39 274.461 210.102 274.496 210.814 274.537C211.485 274.579 212.163 274.62 212.847 274.668C213.38 274.696 213.912 274.737 214.452 274.772C214.908 274.806 215.365 274.841 215.821 274.868L216.444 274.91C216.782 274.937 217.121 274.958 217.467 274.993C218.228 275.055 218.989 275.117 219.763 275.179C220.531 275.248 221.312 275.317 222.094 275.386C222.875 275.455 223.664 275.531 224.452 275.607C224.535 275.614 224.611 275.621 224.687 275.628C225.406 275.704 226.126 275.773 226.852 275.849C227.018 275.862 227.191 275.876 227.357 275.897C228.049 275.966 228.755 276.048 229.453 276.122C229.668 276.145 229.881 276.167 230.096 276.191C230.644 276.25 231.183 276.302 231.734 276.366C232.46 276.449 233.2 276.525 233.92 276.622C234.48 276.684 235.04 276.746 235.6 276.815C236.478 276.919 237.371 277.029 238.263 277.146C238.602 277.188 238.94 277.229 239.279 277.277C241.824 277.595 244.397 277.947 247.011 278.313C250.974 278.872 254.999 279.479 259.051 280.135C263.111 280.791 267.194 281.483 271.299 282.213C272.337 282.399 273.374 282.585 274.418 282.779C274.889 282.868 275.359 282.958 275.829 283.048C276.631 283.193 277.433 283.345 278.236 283.497C279.038 283.648 279.84 283.8 280.642 283.959C281.597 284.145 282.558 284.332 283.512 284.518C289.799 285.761 296.051 287.086 302.15 288.473C303.153 288.701 304.156 288.936 305.152 289.164C307.144 289.626 309.117 290.095 311.072 290.572C311.611 290.696 312.144 290.827 312.676 290.958C314.004 291.289 315.332 291.621 316.639 291.959L316.867 292.021C317.828 292.256 318.769 292.497 319.709 292.746C321.929 293.326 324.112 293.912 326.259 294.506C327.683 294.899 329.092 295.297 330.484 295.7C332.566 296.301 334.606 296.908 336.591 297.522C337.082 297.674 337.573 297.826 338.057 297.971C339.509 298.42 340.941 298.875 342.331 299.331C343.437 299.69 344.516 300.056 345.581 300.421C346.646 300.787 347.691 301.153 348.714 301.519C349.371 301.754 350.021 302.002 350.671 302.237C351.605 302.582 352.525 302.927 353.424 303.272C353.7 303.376 353.97 303.486 354.24 303.59C354.413 303.666 354.579 303.728 354.745 303.797C355.07 303.928 355.402 304.052 355.72 304.183C356.045 304.308 356.363 304.439 356.681 304.577C356.992 304.701 357.31 304.832 357.615 304.963C357.926 305.088 358.23 305.219 358.534 305.357C358.79 305.46 359.039 305.571 359.281 305.681C359.772 305.895 360.263 306.109 360.741 306.33C360.976 306.44 361.211 306.544 361.446 306.654L361.985 306.903C362.061 306.944 362.137 306.979 362.214 307.013C362.386 307.096 362.566 307.186 362.739 307.269C363.14 307.455 363.534 307.655 363.922 307.842C364.44 308.104 364.945 308.366 365.429 308.622C365.92 308.884 366.398 309.146 366.854 309.402C366.93 309.443 366.999 309.484 367.075 309.526C367.179 309.581 367.283 309.643 367.387 309.698C367.739 309.899 368.078 310.106 368.417 310.306C369.081 310.713 369.71 311.113 370.298 311.514C370.429 311.603 370.554 311.693 370.685 311.776C371.121 312.087 371.536 312.39 371.923 312.701C371.923 312.708 371.923 312.708 371.93 312.708C372.062 312.804 372.186 312.908 372.311 313.005C372.414 313.101 372.525 313.184 372.629 313.281C372.988 313.591 373.32 313.888 373.625 314.192C373.727 314.286 373.824 314.385 373.915 314.489C373.955 314.522 373.992 314.559 374.026 314.599C374.164 314.737 374.288 314.875 374.406 315.013C374.424 315.032 374.44 315.053 374.454 315.075C374.62 315.269 374.773 315.462 374.918 315.655C374.987 315.752 375.063 315.848 375.125 315.945C375.208 316.062 375.291 316.187 375.36 316.304C375.423 316.401 375.478 316.504 375.533 316.601C375.68 316.85 375.805 317.111 375.907 317.381C375.985 317.564 376.047 317.753 376.093 317.947C376.146 318.13 376.185 318.317 376.211 318.506V318.506Z" fill="#2F2E41"/>
<path opacity="0.2" d="M376.211 318.506C376.204 319.714 376.19 321.405 376.135 323.497C376.128 323.786 376.114 324.083 376.107 324.387C376.038 327.32 375.935 330.944 375.789 335.037C375.782 335.286 375.775 335.528 375.762 335.776C375.568 340.773 375.264 346.592 374.738 355.807C373.763 372.829 372.062 358.147 370.353 364.118C365.609 361.205 360.409 358.154 354.848 355.02C353.846 354.454 352.834 353.886 351.812 353.315C340.692 347.124 328.271 340.635 315.304 334.209C314.792 333.954 314.274 333.698 313.762 333.45C284.059 318.796 251.638 304.542 225.372 295.031C220.303 293.195 215.462 291.538 210.911 290.082C201.326 287.024 193.041 284.884 186.664 283.959C180.025 282.993 175.44 283.338 173.587 285.333C173.518 283.925 173.446 282.576 173.372 281.288C173.345 280.86 173.317 280.439 173.289 280.025C173.332 279.911 173.387 279.803 173.441 279.693C173.449 279.677 173.454 279.661 173.462 279.645C173.475 279.609 173.492 279.575 173.511 279.541C173.531 279.499 173.554 279.457 173.58 279.417C173.602 279.368 173.63 279.322 173.663 279.279C173.725 279.183 173.794 279.079 173.87 278.982C173.926 278.91 173.986 278.841 174.05 278.775C174.071 278.742 174.097 278.712 174.126 278.686C174.154 278.658 174.181 278.623 174.216 278.589C174.231 278.567 174.25 278.548 174.271 278.534C174.326 278.471 174.386 278.413 174.451 278.361C174.698 278.135 174.961 277.927 175.24 277.74C175.336 277.678 175.44 277.616 175.537 277.547C176.234 277.131 176.968 276.779 177.729 276.497C177.992 276.401 178.255 276.311 178.538 276.214C178.642 276.187 178.739 276.152 178.843 276.118C178.995 276.07 179.147 276.021 179.306 275.987C180.094 275.752 180.945 275.552 181.865 275.365C182.142 275.31 182.432 275.255 182.722 275.207C182.958 275.165 183.2 275.124 183.442 275.082C185.496 274.758 187.826 274.516 190.399 274.358C190.641 274.344 190.883 274.33 191.125 274.316C191.409 274.302 191.692 274.289 191.983 274.275C192.225 274.261 192.474 274.254 192.723 274.247C192.965 274.233 193.214 274.227 193.47 274.22C194.168 274.199 194.887 274.178 195.62 274.164C197.709 274.13 199.908 274.144 202.218 274.192C203.29 274.213 204.383 274.247 205.503 274.296C205.572 274.296 205.648 274.302 205.717 274.302C206.692 274.33 207.681 274.378 208.684 274.427C209.39 274.461 210.102 274.496 210.814 274.537C211.485 274.579 212.163 274.62 212.847 274.668C213.38 274.696 213.912 274.737 214.452 274.772C214.908 274.806 215.365 274.841 215.821 274.868C216.368 274.91 216.914 274.951 217.467 274.993C218.228 275.055 218.989 275.117 219.763 275.179C220.531 275.248 221.312 275.317 222.094 275.386C222.875 275.455 223.664 275.531 224.452 275.607C224.535 275.614 224.611 275.621 224.687 275.628C225.406 275.704 226.126 275.773 226.852 275.849C230.877 276.256 235.019 276.732 239.279 277.277C241.824 277.602 244.402 277.949 247.011 278.32C250.974 278.879 254.999 279.486 259.051 280.135C263.111 280.791 267.194 281.483 271.299 282.213C272.337 282.399 273.374 282.585 274.418 282.779C275.691 283.013 276.963 283.253 278.236 283.497C279.038 283.648 279.84 283.8 280.642 283.959C281.597 284.145 282.558 284.332 283.512 284.518C289.799 285.761 296.051 287.086 302.15 288.473C303.153 288.701 304.156 288.936 305.152 289.164C307.144 289.626 309.117 290.095 311.072 290.572C311.611 290.703 312.144 290.834 312.676 290.965C314.011 291.296 315.332 291.628 316.639 291.959V291.966C316.715 291.98 316.791 292 316.867 292.021C317.821 292.263 318.769 292.504 319.709 292.753C321.929 293.333 324.112 293.917 326.259 294.506C327.683 294.906 329.094 295.3 330.484 295.7C332.566 296.308 334.606 296.915 336.591 297.522C337.082 297.674 337.573 297.826 338.057 297.971C339.509 298.427 340.934 298.88 342.331 299.331C343.437 299.69 344.516 300.056 345.581 300.421C346.646 300.787 347.691 301.153 348.714 301.519C349.378 301.754 350.028 301.995 350.671 302.23C351.612 302.575 352.525 302.92 353.424 303.272C353.7 303.376 353.97 303.486 354.24 303.59C354.745 303.783 355.236 303.983 355.72 304.183C356.045 304.308 356.363 304.439 356.681 304.577C356.992 304.701 357.31 304.832 357.615 304.963C357.926 305.088 358.23 305.219 358.534 305.357C358.79 305.46 359.039 305.571 359.281 305.681C359.772 305.895 360.263 306.109 360.741 306.33C360.976 306.44 361.211 306.544 361.446 306.654L361.985 306.903C362.061 306.944 362.138 306.979 362.214 307.013C362.801 307.289 363.369 307.566 363.922 307.842C364.44 308.104 364.945 308.366 365.429 308.622C366.003 308.925 366.55 309.222 367.075 309.526C367.179 309.581 367.283 309.643 367.387 309.698C367.739 309.899 368.078 310.106 368.417 310.306C369.081 310.713 369.71 311.113 370.298 311.514C370.879 311.914 371.418 312.308 371.923 312.701C371.923 312.708 371.923 312.708 371.93 312.708C372.172 312.901 372.407 313.094 372.629 313.281C372.988 313.591 373.32 313.888 373.625 314.192C373.727 314.286 373.824 314.385 373.915 314.489C373.955 314.522 373.992 314.559 374.026 314.599C374.171 314.758 374.316 314.917 374.455 315.075C374.621 315.269 374.773 315.462 374.918 315.655C374.987 315.752 375.063 315.848 375.125 315.945C375.208 316.062 375.291 316.187 375.36 316.304C375.423 316.401 375.478 316.504 375.533 316.601C375.68 316.85 375.805 317.111 375.907 317.381C375.982 317.565 376.045 317.754 376.094 317.947C376.146 318.13 376.185 318.317 376.211 318.506V318.506Z" fill="black"/>
</g>
<defs>
<clipPath id="clip0_328_107">
<rect width="544.145" height="395" fill="white"/>
</clipPath>
</defs>
</svg>
